<mxfile host="app.diagrams.net" modified="2020-11-25T02:28:23.791Z" agent="5.0 (Windows NT 6.1; Win64; x64) AppleWebKit/537.36 (KHTML, like Gecko) Chrome/86.0.4240.198 Safari/537.36" etag="55-pTQ6WBW6uiMUr6ZgT" version="13.10.1" type="github">
  <diagram id="HKzKsKQpvkmA3h8Kqw7v" name="Page-1">
    <mxGraphModel dx="868" dy="482" grid="1" gridSize="10" guides="1" tooltips="1" connect="1" arrows="1" fold="1" page="1" pageScale="1" pageWidth="827" pageHeight="1169" math="0" shadow="0">
      <root>
        <mxCell id="0" />
        <mxCell id="1" parent="0" />
        <mxCell id="7LjKDFG6ne3SI_YQ3cib-11" style="edgeStyle=orthogonalEdgeStyle;rounded=0;orthogonalLoop=1;jettySize=auto;html=1;exitX=0.5;exitY=1;exitDx=0;exitDy=0;" edge="1" parent="1" source="7LjKDFG6ne3SI_YQ3cib-1" target="7LjKDFG6ne3SI_YQ3cib-3">
          <mxGeometry relative="1" as="geometry" />
        </mxCell>
        <mxCell id="7LjKDFG6ne3SI_YQ3cib-12" style="edgeStyle=orthogonalEdgeStyle;rounded=0;orthogonalLoop=1;jettySize=auto;html=1;exitX=0.5;exitY=1;exitDx=0;exitDy=0;" edge="1" parent="1" source="7LjKDFG6ne3SI_YQ3cib-1" target="7LjKDFG6ne3SI_YQ3cib-2">
          <mxGeometry relative="1" as="geometry" />
        </mxCell>
        <mxCell id="7LjKDFG6ne3SI_YQ3cib-1" value="固定污染源&lt;br&gt;排放量计算" style="rounded=1;whiteSpace=wrap;html=1;" vertex="1" parent="1">
          <mxGeometry x="335" y="60" width="120" height="60" as="geometry" />
        </mxCell>
        <mxCell id="7LjKDFG6ne3SI_YQ3cib-13" style="edgeStyle=orthogonalEdgeStyle;rounded=0;orthogonalLoop=1;jettySize=auto;html=1;exitX=0.5;exitY=1;exitDx=0;exitDy=0;entryX=0.5;entryY=0;entryDx=0;entryDy=0;" edge="1" parent="1" source="7LjKDFG6ne3SI_YQ3cib-2" target="7LjKDFG6ne3SI_YQ3cib-4">
          <mxGeometry relative="1" as="geometry" />
        </mxCell>
        <mxCell id="7LjKDFG6ne3SI_YQ3cib-14" style="edgeStyle=orthogonalEdgeStyle;rounded=0;orthogonalLoop=1;jettySize=auto;html=1;exitX=0.5;exitY=1;exitDx=0;exitDy=0;entryX=0.5;entryY=0;entryDx=0;entryDy=0;" edge="1" parent="1" source="7LjKDFG6ne3SI_YQ3cib-2" target="7LjKDFG6ne3SI_YQ3cib-5">
          <mxGeometry relative="1" as="geometry" />
        </mxCell>
        <mxCell id="7LjKDFG6ne3SI_YQ3cib-2" value="不基于排放系数&lt;br&gt;" style="rounded=1;whiteSpace=wrap;html=1;" vertex="1" parent="1">
          <mxGeometry x="500" y="160" width="120" height="60" as="geometry" />
        </mxCell>
        <mxCell id="7LjKDFG6ne3SI_YQ3cib-15" style="edgeStyle=orthogonalEdgeStyle;rounded=0;orthogonalLoop=1;jettySize=auto;html=1;exitX=0.5;exitY=1;exitDx=0;exitDy=0;entryX=0.5;entryY=0;entryDx=0;entryDy=0;" edge="1" parent="1" source="7LjKDFG6ne3SI_YQ3cib-3" target="7LjKDFG6ne3SI_YQ3cib-9">
          <mxGeometry relative="1" as="geometry" />
        </mxCell>
        <mxCell id="7LjKDFG6ne3SI_YQ3cib-16" style="edgeStyle=orthogonalEdgeStyle;rounded=0;orthogonalLoop=1;jettySize=auto;html=1;exitX=0.5;exitY=1;exitDx=0;exitDy=0;entryX=0.558;entryY=0;entryDx=0;entryDy=0;entryPerimeter=0;" edge="1" parent="1" source="7LjKDFG6ne3SI_YQ3cib-3" target="7LjKDFG6ne3SI_YQ3cib-10">
          <mxGeometry relative="1" as="geometry" />
        </mxCell>
        <mxCell id="7LjKDFG6ne3SI_YQ3cib-3" value="基于排放系数&lt;br&gt;" style="rounded=1;whiteSpace=wrap;html=1;" vertex="1" parent="1">
          <mxGeometry x="182" y="160" width="120" height="60" as="geometry" />
        </mxCell>
        <mxCell id="7LjKDFG6ne3SI_YQ3cib-4" value="基于在线监测数据" style="rounded=1;whiteSpace=wrap;html=1;" vertex="1" parent="1">
          <mxGeometry x="414" y="270" width="120" height="60" as="geometry" />
        </mxCell>
        <mxCell id="7LjKDFG6ne3SI_YQ3cib-5" value="不基于在线监测数据" style="rounded=1;whiteSpace=wrap;html=1;" vertex="1" parent="1">
          <mxGeometry x="580" y="270" width="120" height="60" as="geometry" />
        </mxCell>
        <mxCell id="7LjKDFG6ne3SI_YQ3cib-9" value="基于在线监测数据" style="rounded=1;whiteSpace=wrap;html=1;" vertex="1" parent="1">
          <mxGeometry x="100" y="270" width="120" height="60" as="geometry" />
        </mxCell>
        <mxCell id="7LjKDFG6ne3SI_YQ3cib-10" value="不基于在线监测数据" style="rounded=1;whiteSpace=wrap;html=1;" vertex="1" parent="1">
          <mxGeometry x="260" y="270" width="120" height="60" as="geometry" />
        </mxCell>
      </root>
    </mxGraphModel>
  </diagram>
</mxfile>
